<svg width="5086" height="428" viewBox="0 0 5086 428" fill="none" xmlns="http://www.w3.org/2000/svg">
<path d="M348.6 262.2C348.6 364.2 282 427.2 174.6 427.2C66 427.2 2.05636e-06 364.2 2.05636e-06 262.2V9.60009H96.6V262.2C96.6 316.8 125.4 349.8 174.6 349.8C223.8 349.8 252.6 316.8 252.6 262.2V9.60009H348.6V262.2ZM519.244 417.6V276L379.444 9.60009H486.844L553.444 147L570.844 193.8L587.644 147L653.644 9.60009H756.244L615.844 276V417.6H519.244ZM789.647 417.6V9.60009H1082.45V85.8001H885.647V171.6H1059.05V246H885.647V341.4H1082.45V417.6H789.647ZM1135.8 417.6V9.60009H1237.2L1366.2 223.8L1397.4 288.6L1392.6 9.60009H1488.6V417.6H1387.2L1258.2 203.4L1227 138L1231.8 417.6H1135.8ZM1662.86 417.6V9.60009H1819.46C1948.46 9.60009 2028.86 87.0001 2028.86 214.2C2028.86 341.4 1948.46 417.6 1819.46 417.6H1662.86ZM1819.46 339.6C1889.66 339.6 1930.46 293.4 1930.46 214.2C1930.46 134.4 1889.66 87.6001 1819.46 87.6001H1758.86V339.6H1819.46ZM2337.81 417.6L2310.81 341.4H2150.61L2123.61 417.6H2027.01L2175.81 9.60009H2291.01L2440.41 417.6H2337.81ZM2218.41 150L2177.01 267.6H2284.41L2243.01 150L2231.01 103.8L2218.41 150ZM2642.65 427.2C2516.05 427.2 2438.05 345.6 2438.05 214.2C2438.05 82.2001 2516.05 7.39098e-05 2642.65 7.39098e-05C2768.65 7.39098e-05 2846.65 82.2001 2846.65 214.2C2846.65 345.6 2768.65 427.2 2642.65 427.2ZM2642.65 348.6C2709.25 348.6 2748.25 298.2 2748.25 214.2C2748.25 130.2 2709.25 78.6001 2642.65 78.6001C2575.45 78.6001 2536.45 129.6 2536.45 214.2C2536.45 298.2 2575.45 348.6 2642.65 348.6ZM3007.61 417.6V9.60009H3164.21C3293.21 9.60009 3373.61 87.0001 3373.61 214.2C3373.61 341.4 3293.21 417.6 3164.21 417.6H3007.61ZM3164.21 339.6C3234.41 339.6 3275.21 293.4 3275.21 214.2C3275.21 134.4 3234.41 87.6001 3164.21 87.6001H3103.61V339.6H3164.21ZM3427.58 417.6V9.60009H3720.38V85.8001H3523.58V171.6H3696.98V246H3523.58V341.4H3720.38V417.6H3427.58ZM3858.33 114.6C3858.33 201.6 4098.33 127.8 4098.33 294.6C4098.33 378.6 4028.73 427.2 3933.33 427.2C3836.73 427.2 3767.73 382.8 3753.33 289.8H3854.73C3862.53 330 3890.73 352.2 3933.93 352.2C3977.13 352.2 3999.93 334.8 3999.93 306.6C3999.93 215.4 3759.33 285 3759.33 123.6C3759.33 55.2001 3816.33 7.39098e-05 3916.53 7.39098e-05C4001.13 7.39098e-05 4074.33 40.2001 4086.93 134.4H3984.33C3975.93 94.2001 3952.53 75.0001 3912.93 75.0001C3879.33 75.0001 3858.33 90.6001 3858.33 114.6ZM4145.08 417.6V9.60009H4241.08V417.6H4145.08ZM4672.61 417.6H4607.21L4598.81 372C4574.21 409.2 4533.41 427.2 4484.81 427.2C4370.21 427.2 4295.21 346.2 4295.21 214.2C4295.21 82.2001 4370.21 7.39098e-05 4493.21 7.39098e-05C4580.81 7.39098e-05 4655.21 47.4001 4672.61 140.4H4571.81C4560.41 100.2 4531.61 78.6001 4490.81 78.6001C4429.01 78.6001 4393.61 129.6 4393.61 214.2C4393.61 298.8 4430.81 348.6 4493.81 348.6C4537.61 348.6 4574.21 324.6 4580.81 269.4H4502.81V196.8H4672.61V417.6ZM4732.49 417.6V9.60009H4833.89L4962.89 223.8L4994.09 288.6L4989.29 9.60009H5085.29V417.6H4983.89L4854.89 203.4L4823.69 138L4828.49 417.6H4732.49Z" fill="black"/>
</svg>
