<svg width="7061" height="1913" viewBox="0 0 7061 1913" fill="none" xmlns="http://www.w3.org/2000/svg">
<path d="M480.755 1171.94C480.755 1627.84 388.907 1909.43 240.791 1909.43C91.0207 1909.43 0 1627.84 0 1171.94V42.9085H133.221V1171.94C133.221 1415.98 172.939 1563.48 240.791 1563.48C308.643 1563.48 348.361 1415.98 348.361 1171.94V42.9085H480.755V1171.94ZM716.09 1866.52V1233.62L523.292 42.9085H671.407L763.255 657.037L787.252 866.215L810.421 657.037L901.441 42.9085H1042.94L849.311 1233.62V1866.52H716.09ZM1089 1866.52V42.9085H1492.81V383.494H1221.4V766.99H1460.54V1099.53H1221.4V1525.93H1492.81V1866.52H1089ZM1566.38 1866.52V42.9085H1706.22L1884.13 1000.3L1927.16 1289.94L1920.54 42.9085H2052.93V1866.52H1913.09L1735.19 909.124L1692.16 616.81L1698.78 1866.52H1566.38ZM2293.25 1866.52V42.9085H2509.22C2687.12 42.9085 2798 388.857 2798 957.396C2798 1525.93 2687.12 1866.52 2509.22 1866.52H2293.25ZM2509.22 1517.89C2606.03 1517.89 2662.3 1311.39 2662.3 957.396C2662.3 600.72 2606.03 391.539 2509.22 391.539H2425.65V1517.89H2509.22ZM3224.08 1866.52L3186.84 1525.93H2965.91L2928.67 1866.52H2795.45L3000.66 42.9085H3159.54L3365.57 1866.52H3224.08ZM3059.41 670.446L3002.32 1196.07H3150.43L3093.34 670.446L3076.79 463.949L3059.41 670.446ZM3644.48 1909.43C3469.89 1909.43 3362.32 1544.7 3362.32 957.396C3362.32 367.403 3469.89 0 3644.48 0C3818.25 0 3925.82 367.403 3925.82 957.396C3925.82 1544.7 3818.25 1909.43 3644.48 1909.43ZM3644.48 1558.11C3736.33 1558.11 3790.12 1332.84 3790.12 957.396C3790.12 581.947 3736.33 351.313 3644.48 351.313C3551.81 351.313 3498.02 579.265 3498.02 957.396C3498.02 1332.84 3551.81 1558.11 3644.48 1558.11ZM4264.47 512.221C4264.47 901.078 4595.46 571.22 4595.46 1316.75C4595.46 1692.2 4499.47 1909.43 4367.9 1909.43C4234.68 1909.43 4139.52 1710.97 4119.67 1295.3H4259.51C4270.26 1474.98 4309.15 1574.2 4368.73 1574.2C4428.31 1574.2 4459.75 1496.43 4459.75 1370.39C4459.75 962.759 4127.94 1273.85 4127.94 552.448C4127.94 246.723 4206.55 0 4344.74 0C4461.41 0 4562.36 179.679 4579.73 600.72H4438.24C4426.65 421.039 4394.38 335.222 4339.77 335.222C4293.43 335.222 4264.47 404.948 4264.47 512.221ZM4777.24 1866.52V394.221H4602.64V42.9085H5085.05V394.221H4910.46V1866.52H4777.24ZM5622.78 1171.94C5622.78 1627.84 5530.93 1909.43 5382.81 1909.43C5233.04 1909.43 5142.02 1627.84 5142.02 1171.94V42.9085H5275.24V1171.94C5275.24 1415.98 5314.96 1563.48 5382.81 1563.48C5450.66 1563.48 5490.38 1415.98 5490.38 1171.94V42.9085H5622.78V1171.94ZM5710.83 1866.52V42.9085H5926.8C6104.7 42.9085 6215.58 388.857 6215.58 957.396C6215.58 1525.93 6104.7 1866.52 5926.8 1866.52H5710.83ZM5926.8 1517.89C6023.61 1517.89 6079.88 1311.39 6079.88 957.396C6079.88 600.72 6023.61 391.539 5926.8 391.539H5843.23V1517.89H5926.8ZM6290.01 1866.52V42.9085H6422.41V1866.52H6290.01ZM6779.24 1909.43C6604.64 1909.43 6497.07 1544.7 6497.07 957.396C6497.07 367.403 6604.64 0 6779.24 0C6953 0 7060.57 367.403 7060.57 957.396C7060.57 1544.7 6953 1909.43 6779.24 1909.43ZM6779.24 1558.11C6871.08 1558.11 6924.87 1332.84 6924.87 957.396C6924.87 581.947 6871.08 351.313 6779.24 351.313C6686.56 351.313 6632.78 579.265 6632.78 957.396C6632.78 1332.84 6686.56 1558.11 6779.24 1558.11Z" fill="black"/>
</svg>
