<svg width="1610" height="149" viewBox="0 0 1610 149" fill="none" xmlns="http://www.w3.org/2000/svg">
<path d="M82.5299 97.6496V4.61956H112.35V97.6496C112.35 131.46 91.5599 148.89 55.0199 148.89C21.2099 148.89 -7.77245e-05 132.93 -7.77245e-05 99.3296V4.61956H29.6099V96.5996C29.6099 113.82 38.8499 124.74 54.5999 124.74C73.2899 124.74 82.5299 115.92 82.5299 97.6496ZM196.337 144.06H167.147V91.3496L118.847 4.61956H152.867L182.267 61.3196L209.357 4.61956H242.957L196.337 91.7696V144.06ZM355.215 144.06H249.375V4.61956H351.855V28.9796H277.725V58.7996H345.975V83.3696H277.725V119.28H355.215V144.06ZM474.753 144.06H447.873L388.233 50.3996V144.06H361.143V4.61956H392.013L447.453 94.2896V4.61956H474.753V144.06ZM564.219 120.33H588.369C613.779 120.33 624.699 104.37 624.699 72.8696C624.699 41.3696 613.779 28.7696 585.849 28.7696H564.219V120.33ZM594.249 144.06H535.869V4.61956H589.839C627.639 4.61956 654.519 30.4496 654.519 72.8696C654.519 115.29 630.369 144.06 594.249 144.06ZM727.842 91.3496L710.412 35.9096H710.202L692.352 91.3496H727.842ZM776.772 144.06H745.062L736.242 115.29H684.792L674.922 144.06H644.052L693.822 4.61956H727.632L776.772 144.06ZM833.738 123.9C854.738 123.9 871.538 109.2 871.538 76.2296C871.538 43.2596 858.098 25.8296 833.738 25.8296C809.168 25.8296 795.518 43.2596 795.518 76.2296C795.518 109.2 809.588 123.9 833.738 123.9ZM833.738 148.89C790.898 148.89 766.748 122.64 766.748 75.5996C766.748 28.3496 790.898 -0.000440001 833.738 -0.000440001C876.578 -0.000440001 900.308 28.3496 900.308 76.2296C900.308 124.11 876.578 148.89 833.738 148.89ZM1066.45 45.7796H1038.73C1037.26 31.4996 1028.65 24.5696 1011.01 24.5696C994.626 24.5696 986.016 30.4496 986.016 40.9496C986.016 49.7696 992.106 54.8096 1007.65 58.5896C1023.4 62.3696 1038.73 66.1496 1049.02 70.7696C1061.2 76.2296 1070.86 84.8396 1070.86 104.58C1070.86 135.24 1047.76 148.89 1015.21 148.89C980.766 148.89 956.826 133.56 956.196 102.27H984.336C984.756 116.55 996.726 125.37 1015.42 125.37C1032.64 125.37 1042.51 118.02 1042.51 105.63C1042.51 97.4396 1038.31 91.7696 1020.88 87.9896C1003.66 84.2096 992.526 81.6896 982.656 77.2796C967.746 70.5596 959.346 60.4796 959.346 42.8396C959.346 17.8496 976.356 -0.000440001 1010.38 -0.000440001C1045.66 -0.000440001 1065.4 19.1096 1066.45 45.7796ZM1138.73 144.06H1109.54V28.9796H1067.54V4.61956H1180.94V28.9796H1138.73V144.06ZM1270.34 97.6496V4.61956H1300.16V97.6496C1300.16 131.46 1279.37 148.89 1242.83 148.89C1209.02 148.89 1187.81 132.93 1187.81 99.3296V4.61956H1217.42V96.5996C1217.42 113.82 1226.66 124.74 1242.41 124.74C1261.1 124.74 1270.34 115.92 1270.34 97.6496ZM1339.21 120.33H1363.36C1388.77 120.33 1399.69 104.37 1399.69 72.8696C1399.69 41.3696 1388.77 28.7696 1360.84 28.7696H1339.21V120.33ZM1369.24 144.06H1310.86V4.61956H1364.83C1402.63 4.61956 1429.51 30.4496 1429.51 72.8696C1429.51 115.29 1405.36 144.06 1369.24 144.06ZM1467.61 144.06H1438.42V4.61956H1467.61V144.06ZM1542.9 123.9C1563.9 123.9 1580.7 109.2 1580.7 76.2296C1580.7 43.2596 1567.26 25.8296 1542.9 25.8296C1518.33 25.8296 1504.68 43.2596 1504.68 76.2296C1504.68 109.2 1518.75 123.9 1542.9 123.9ZM1542.9 148.89C1500.06 148.89 1475.91 122.64 1475.91 75.5996C1475.91 28.3496 1500.06 -0.000440001 1542.9 -0.000440001C1585.74 -0.000440001 1609.47 28.3496 1609.47 76.2296C1609.47 124.11 1585.74 148.89 1542.9 148.89Z" fill="black"/>
</svg>
